<?xml version="1.0" standalone="no"?>
<!DOCTYPE svg PUBLIC "-//W3C//DTD SVG 20010904//EN"
 "http://www.w3.org/TR/2001/REC-SVG-20010904/DTD/svg10.dtd">
<svg version="1.0" xmlns="http://www.w3.org/2000/svg"
 width="700.000000pt" height="700.000000pt" viewBox="0 0 700.000000 700.000000"
 preserveAspectRatio="xMidYMid meet">
<metadata>
Created by potrace 1.14, written by Peter Selinger 2001-2017
</metadata>
<g transform="translate(0.000000,700.000000) scale(0.100000,-0.100000)"
fill="#000000" stroke="none">
<path d="M910 6600 c-239 -5 -258 -7 -308 -29 -62 -28 -154 -122 -174 -178
-11 -31 -13 -343 -13 -1743 0 -1962 -10 -1774 98 -1877 40 -39 78 -65 103 -73
21 -6 163 -16 314 -21 151 -6 277 -13 279 -15 2 -2 55 -426 117 -942 62 -515
122 -993 133 -1061 26 -157 45 -193 126 -238 l60 -33 470 1 c259 0 529 4 601
8 117 6 135 9 168 31 65 44 83 82 105 220 16 99 151 1157 151 1183 0 4 155 7
345 7 268 0 347 -3 350 -12 2 -7 11 -85 20 -173 42 -429 116 -1034 132 -1075
22 -61 92 -133 156 -161 l52 -23 701 -4 702 -4 61 32 c108 58 155 117 172 218
10 62 112 984 180 1628 l43 401 148 10 c127 9 156 15 202 37 61 30 124 93 157
158 l23 43 7 825 c5 453 5 1229 1 1725 l-8 900 -24 48 c-31 63 -125 152 -176
167 -21 6 -95 15 -164 20 -140 10 -715 11 -915 1 -120 -6 -130 -8 -133 -26 -3
-19 -9 -20 -138 -17 -120 3 -139 1 -157 -15 -20 -18 -20 -18 -7 6 11 21 10 26
-3 36 -12 8 -142 14 -438 18 -496 8 -3149 6 -3519 -3z m4291 -78 c-7 -2 -18 1
-23 6 -8 8 -4 9 13 5 13 -4 18 -8 10 -11z m-368 1 c-13 -2 -35 -2 -50 0 -16 2
-5 4 22 4 28 0 40 -2 28 -4z m-941 -10 c-431 -2 -1133 -2 -1560 0 -427 1 -75
2 783 2 858 0 1208 -1 777 -2z m1670 0 c-62 -2 -161 -2 -220 0 -59 1 -8 3 113
3 121 0 169 -2 107 -3z m421 0 c-35 -2 -91 -2 -125 0 -35 2 -7 3 62 3 69 0 97
-1 63 -3z m-5105 -10 c-32 -2 -84 -2 -115 0 -32 2 -6 3 57 3 63 0 89 -1 58 -3z
m5420 0 c-10 -2 -26 -2 -35 0 -10 3 -2 5 17 5 19 0 27 -2 18 -5z m-5621 -9
c-3 -3 -12 -4 -19 -1 -8 3 -5 6 6 6 11 1 17 -2 13 -5z m3975 -201 c-655 -2
-1729 -2 -2385 0 -655 1 -119 2 1193 2 1312 0 1848 -1 1192 -2z m-3613 -7 c-2
-2 -53 -6 -114 -8 -60 -3 -99 -2 -85 2 25 8 207 13 199 6z m5038 -2 c-3 -3
-12 -4 -19 -1 -8 3 -5 6 6 6 11 1 17 -2 13 -5z m138 -24 c3 -6 -1 -7 -9 -4
-18 7 -21 14 -7 14 6 0 13 -4 16 -10z m-454 -77 l32 -32 5 -1348 c3 -880 8
-1352 14 -1360 14 -17 3 -16 -31 2 -24 12 -29 23 -35 66 -16 118 -100 223
-208 258 -47 15 -55 26 -73 96 -8 31 -29 77 -46 101 -33 48 -116 109 -164 120
-40 9 -53 20 -76 67 -11 21 -38 58 -60 82 -132 144 -395 111 -481 -59 -27 -55
-57 -86 -83 -86 -47 0 -163 -97 -198 -167 -8 -15 -22 -53 -30 -83 -15 -53 -18
-56 -66 -73 -97 -34 -200 -159 -201 -242 0 -57 -10 -74 -49 -85 -51 -13 -123
-61 -154 -102 -31 -41 -76 -136 -78 -163 0 -11 -8 -37 -18 -59 l-17 -38 -105
-5 -105 -5 -12 39 c-20 66 -50 103 -100 126 -46 21 -60 22 -530 25 l-483 4 7
319 c5 227 3 380 -6 529 l-14 210 -65 2 c-36 1 -114 2 -172 2 l-106 1 -6 -170
c-4 -93 -7 -330 -7 -526 l0 -357 -22 -6 c-13 -3 -162 -6 -333 -6 -374 -1 -630
-13 -667 -30 -29 -14 -72 -70 -83 -110 -17 -57 -49 -65 -102 -24 l-33 25 0
492 c0 271 -3 691 -7 935 l-6 442 -24 0 c-22 0 -23 3 -16 38 9 47 9 195 -1
245 -6 32 -5 37 12 37 12 0 23 9 27 23 4 12 9 202 12 422 l5 400 29 30 29 31
2435 -1 2435 0 31 -32z m410 0 l34 -38 -33 30 c-32 29 -39 30 -145 36 l-112 6
111 1 110 2 35 -37z m108 -121 c0 -64 -2 -112 -4 -107 -8 24 -12 234 -4 229 5
-3 9 -58 8 -122z m-5552 56 c-3 -8 -6 -5 -6 6 -1 11 2 17 5 13 3 -3 4 -12 1
-19z m0 -775 c-3 -10 -5 -4 -5 12 0 17 2 24 5 18 2 -7 2 -21 0 -30z m-10
-1600 c-1 -169 -2 -33 -2 302 0 336 1 474 2 308 2 -166 2 -440 0 -610z m1496
500 c-18 -2 -48 -2 -65 0 -18 2 -4 4 32 4 36 0 50 -2 33 -4z m2760 -7 c64 -23
107 -64 138 -132 32 -71 33 -72 101 -90 58 -15 120 -55 149 -96 13 -17 24 -59
32 -112 l11 -83 51 -13 c72 -18 140 -55 164 -89 28 -40 39 -72 50 -156 11 -75
26 -95 70 -95 37 0 123 -52 154 -93 l27 -35 -80 5 c-97 7 -153 -11 -217 -70
l-43 -40 -36 37 c-41 42 -74 61 -137 77 -67 16 -143 -9 -211 -72 l-51 -47 -47
39 c-130 110 -281 109 -394 -2 l-41 -41 -47 46 c-58 56 -143 91 -200 81 -51
-8 -154 -62 -173 -92 l-15 -23 -42 34 c-84 68 -158 92 -235 75 -28 -6 -56 -9
-61 -7 -6 2 5 22 24 44 37 43 103 77 172 89 l41 6 6 75 c8 85 27 137 65 177
35 37 93 67 130 67 50 0 72 27 79 95 3 33 14 76 24 96 22 44 90 105 127 114
100 24 96 21 132 96 46 97 118 148 210 148 19 0 52 -6 73 -13z m1212 -1125
c-13 -13 -14 -11 -5 19 6 19 11 109 12 200 l3 165 2 -184 c3 -154 1 -187 -12
-200z m-250 249 c10 -11 16 -20 13 -20 -3 0 -13 9 -23 20 -10 11 -16 20 -13
20 3 0 13 -9 23 -20z m335 -251 c-15 -54 -21 -46 -10 11 5 25 10 83 12 130 l2
85 3 -93 c2 -50 -1 -111 -7 -133z m-5543 44 c-2 -16 -4 -5 -4 22 0 28 2 40 4
28 2 -13 2 -35 0 -50z m5290 45 c-3 -8 -6 -5 -6 6 -1 11 2 17 5 13 3 -3 4 -12
1 -19z m-2608 -53 c43 -49 43 -106 0 -158 l-30 -37 -1135 0 c-1224 0 -1183 -2
-1218 52 -8 13 -16 39 -18 60 -2 35 4 48 46 96 l19 22 1153 0 1152 0 31 -35z
m1518 29 c-3 -3 -12 -4 -19 -1 -8 3 -5 6 6 6 11 1 17 -2 13 -5z m514 -20 c39
-20 77 -70 85 -111 9 -48 -32 -904 -52 -1088 l-7 -60 -13 64 c-26 126 -111
263 -220 357 l-57 48 8 226 c4 124 7 248 6 275 -2 28 1 86 4 129 7 73 10 82
44 118 59 64 131 79 202 42z m382 19 c-7 -2 -21 -2 -30 0 -10 3 -4 5 12 5 17
0 24 -2 18 -5z m-1303 -22 c52 -27 78 -71 84 -144 3 -34 8 -197 11 -362 l6
-300 -52 -34 c-98 -66 -196 -218 -219 -340 -12 -64 -21 -78 -19 -30 1 19 -6
124 -14 234 -9 110 -23 347 -33 526 l-18 326 25 49 c32 65 76 94 143 94 31 0
65 -7 86 -19z m1625 -71 c-3 -5 -12 -10 -18 -10 -7 0 -6 4 3 10 19 12 23 12
15 0z m-508 -42 c-3 -8 -6 -5 -6 6 -1 11 2 17 5 13 3 -3 4 -12 1 -19z m-1826
-34 c-5 -16 -10 -21 -10 -12 -1 18 10 51 15 45 2 -1 -1 -16 -5 -33z m1816 -31
c-3 -10 -5 -2 -5 17 0 19 2 27 5 18 2 -10 2 -26 0 -35z m370 10 c-3 -10 -5 -4
-5 12 0 17 2 24 5 18 2 -7 2 -21 0 -30z m-5080 1 c-3 -3 -12 -4 -19 -1 -8 3
-5 6 6 6 11 1 17 -2 13 -5z m2656 -1 c-7 -2 -21 -2 -30 0 -10 3 -4 5 12 5 17
0 24 -2 18 -5z m154 -18 c1 -14 0 -15 -3 -3 -3 9 -15 19 -27 22 -18 4 -18 4 3
3 17 -1 25 -8 27 -22z m2369 9 c-9 -8 -16 -23 -17 -32 0 -10 -3 -12 -5 -5 -7
15 13 53 27 53 6 0 3 -7 -5 -16z m-5111 -44 c10 -11 16 -20 13 -20 -3 0 -13 9
-23 20 -10 11 -16 20 -13 20 3 0 13 -9 23 -20z m2832 -27 c-3 -10 -5 -2 -5 17
0 19 2 27 5 18 2 -10 2 -26 0 -35z m880 5 c-3 -7 -5 -2 -5 12 0 14 2 19 5 13
2 -7 2 -19 0 -25z m920 -25 c-3 -10 -5 -4 -5 12 0 17 2 24 5 18 2 -7 2 -21 0
-30z m370 0 c-3 -10 -5 -4 -5 12 0 17 2 24 5 18 2 -7 2 -21 0 -30z m-880 -50
c-3 -10 -5 -2 -5 17 0 19 2 27 5 18 2 -10 2 -26 0 -35z m-1280 -25 c-3 -7 -5
-2 -5 12 0 14 2 19 5 13 2 -7 2 -19 0 -25z m870 -10 c-3 -7 -5 -2 -5 12 0 14
2 19 5 13 2 -7 2 -19 0 -25z m1280 -10 c-3 -7 -5 -2 -5 12 0 14 2 19 5 13 2
-7 2 -19 0 -25z m-5184 -15 c-13 -2 -35 -2 -50 0 -16 2 -5 4 22 4 28 0 40 -2
28 -4z m5484 1 c-3 -3 -12 -4 -19 -1 -8 3 -5 6 6 6 11 1 17 -2 13 -5z m-184
-11 c-7 -2 -19 -2 -25 0 -7 3 -2 5 12 5 14 0 19 -2 13 -5z m-986 -55 c-2 -13
-4 -5 -4 17 -1 22 1 32 4 23 2 -10 2 -28 0 -40z m-1270 0 c-3 -7 -5 -2 -5 12
0 14 2 19 5 13 2 -7 2 -19 0 -25z m2130 -10 c-3 -8 -6 -5 -6 6 -1 11 2 17 5
13 3 -3 4 -12 1 -19z m-2240 -15 c-20 -2 -52 -2 -70 0 -17 2 0 4 38 4 39 0 53
-2 32 -4z m-470 -9 c-3 -3 -12 -4 -19 -1 -8 3 -5 6 6 6 11 1 17 -2 13 -5z
m590 -56 c-3 -8 -6 -5 -6 6 -1 11 2 17 5 13 3 -3 4 -12 1 -19z m2110 -20 c-3
-8 -6 -5 -6 6 -1 11 2 17 5 13 3 -3 4 -12 1 -19z m-3623 -173 c89 -19 182 -62
266 -125 l67 -50 217 0 217 0 -7 -52 c-4 -29 -26 -201 -48 -383 l-41 -330 -85
3 c-47 2 -127 1 -178 -3 -88 -7 -94 -8 -140 -46 -112 -94 -233 -139 -371 -139
-144 0 -242 35 -376 134 l-69 51 -171 0 -170 0 -37 315 c-20 173 -38 342 -40
375 l-3 59 40 8 c22 4 118 7 214 7 l173 1 47 39 c158 131 315 174 495 136z
m3603 -17 c-3 -8 -6 -5 -6 6 -1 11 2 17 5 13 3 -3 4 -12 1 -19z m-2150 -20
c-3 -7 -5 -2 -5 12 0 14 2 19 5 13 2 -7 2 -19 0 -25z m-2369 -55 c-10 -2 -28
-2 -40 0 -13 2 -5 4 17 4 22 1 32 -1 23 -4z m335 0 c-13 -2 -35 -2 -50 0 -16
2 -5 4 22 4 28 0 40 -2 28 -4z m3262 -8 c133 -35 261 -138 321 -260 35 -72 35
-72 36 -210 l0 -137 -36 -73 c-45 -91 -136 -179 -233 -227 -67 -33 -70 -33
-208 -33 l-140 0 -65 35 c-85 46 -189 149 -225 223 -57 119 -57 300 1 423 52
111 182 220 308 260 57 18 170 17 241 -1z m-1727 -122 c-21 -2 -55 -2 -75 0
-21 2 -4 4 37 4 41 0 58 -2 38 -4z m522 -14 c0 -19 -2 -20 -17 -8 -9 8 -41 17
-72 20 l-56 6 73 2 c67 1 72 0 72 -20z m27 -251 c-3 -7 -5 -2 -5 12 0 14 2 19
5 13 2 -7 2 -19 0 -25z m566 -342 c30 -58 130 -167 209 -231 l36 -30 7 -425 6
-425 -125 0 -124 0 -6 90 c-6 78 -45 792 -61 1090 l-5 100 15 -54 c8 -30 30
-81 48 -115z m1042 -137 c-28 -523 -45 -822 -51 -899 l-6 -75 -124 0 -124 0 6
360 c2 198 7 392 10 432 5 70 6 72 46 99 61 43 170 165 200 225 16 30 33 77
40 106 7 28 14 50 16 49 2 -2 -4 -136 -13 -297z m-3937 -66 c-10 -2 -28 -2
-40 0 -13 2 -5 4 17 4 22 1 32 -1 23 -4z m278 -9 c10 -8 13 -12 6 -9 -8 4 -26
11 -40 15 -22 7 -23 8 -6 9 11 1 29 -6 40 -15z m4011 -276 c-3 -8 -6 -5 -6 6
-1 11 2 17 5 13 3 -3 4 -12 1 -19z m-290 -70 c-3 -8 -6 -5 -6 6 -1 11 2 17 5
13 3 -3 4 -12 1 -19z m280 -20 c-3 -8 -6 -5 -6 6 -1 11 2 17 5 13 3 -3 4 -12
1 -19z m-10 -90 c-3 -8 -6 -5 -6 6 -1 11 2 17 5 13 3 -3 4 -12 1 -19z m-1040
-40 c-3 -7 -5 -2 -5 12 0 14 2 19 5 13 2 -7 2 -19 0 -25z m760 -30 c-3 -7 -5
-2 -5 12 0 14 2 19 5 13 2 -7 2 -19 0 -25z m-430 -20 c-3 -7 -5 -2 -5 12 0 14
2 19 5 13 2 -7 2 -19 0 -25z m700 0 c-3 -7 -5 -2 -5 12 0 14 2 19 5 13 2 -7 2
-19 0 -25z m-10 -80 c-3 -7 -5 -2 -5 12 0 14 2 19 5 13 2 -7 2 -19 0 -25z
m-4220 0 c-3 -8 -6 -5 -6 6 -1 11 2 17 5 13 3 -3 4 -12 1 -19z m2520 -50 c-3
-8 -6 -5 -6 6 -1 11 2 17 5 13 3 -3 4 -12 1 -19z m260 -10 c-3 -7 -5 -2 -5 12
0 14 2 19 5 13 2 -7 2 -19 0 -25z m1430 -25 c-3 -10 -5 -2 -5 17 0 19 2 27 5
18 2 -10 2 -26 0 -35z m-4200 15 c-3 -8 -6 -5 -6 6 -1 11 2 17 5 13 3 -3 4
-12 1 -19z m3940 -25 c-3 -10 -5 -2 -5 17 0 19 2 27 5 18 2 -10 2 -26 0 -35z
m-1409 -53 c0 -9 -3 -7 -8 5 -5 11 -8 29 -8 40 0 16 2 15 8 -5 4 -14 8 -32 8
-40z m1659 18 c-3 -8 -6 -5 -6 6 -1 11 2 17 5 13 3 -3 4 -12 1 -19z m-4180
-10 c-3 -8 -6 -5 -6 6 -1 11 2 17 5 13 3 -3 4 -12 1 -19z m2773 -92 c0 -23 -6
-36 -17 -41 -15 -5 -16 -4 -5 6 6 7 12 26 12 41 0 15 2 28 5 28 3 0 5 -15 5
-34z m1154 -21 c3 -8 1 -15 -4 -15 -6 0 -10 7 -10 15 0 8 2 15 4 15 2 0 6 -7
10 -15z m-3765 -11 c2 -2 -16 -4 -42 -4 -25 0 -48 4 -51 9 -5 8 84 3 93 -5z
m3119 -11 c-15 -2 -42 -2 -60 0 -18 2 -6 4 27 4 33 0 48 -2 33 -4z m190 0
c-16 -2 -40 -2 -55 0 -16 2 -3 4 27 4 30 0 43 -2 28 -4z"/>
<path d="M1334 5853 c-35 -85 -91 -142 -164 -169 -44 -17 -56 -26 -58 -46 -4
-29 7 -39 70 -62 59 -22 91 -59 140 -164 36 -75 42 -83 65 -80 22 2 29 12 43
57 21 64 79 127 165 178 33 20 68 43 78 51 16 14 16 16 0 34 -9 10 -34 23 -56
29 -51 13 -125 83 -162 151 -59 112 -80 115 -121 21z m118 -290 l-67 -63 -25
33 c-14 17 -40 47 -58 66 l-33 34 62 63 62 63 63 -67 64 -67 -68 -62z"/>
<path d="M1945 5648 c-2 -7 -6 -29 -9 -49 -10 -57 -63 -154 -106 -193 -42 -38
-111 -76 -175 -96 -86 -27 -92 -70 -12 -90 134 -33 196 -101 291 -322 37 -86
57 -79 96 33 41 118 78 155 286 284 68 42 70 67 7 90 -142 52 -192 98 -273
255 -44 86 -54 100 -76 100 -13 0 -26 -6 -29 -12z m83 -217 c34 -50 117 -133
161 -162 l25 -16 -55 -40 c-66 -49 -113 -94 -155 -147 l-30 -38 -42 65 c-46
71 -79 109 -130 147 l-34 25 61 43 c35 24 82 71 109 107 26 35 49 64 52 64 3
0 20 -22 38 -48z"/>
<path d="M3353 5551 c-301 -48 -579 -267 -699 -552 -55 -131 -64 -180 -64
-359 0 -189 10 -240 76 -379 56 -118 113 -199 202 -282 87 -83 140 -119 244
-169 137 -65 220 -83 388 -83 168 0 251 18 388 83 102 49 155 85 238 162 162
152 250 327 289 573 17 108 15 138 -26 315 -75 324 -332 585 -659 670 -94 25
-286 35 -377 21z m362 -97 c143 -37 285 -124 397 -242 222 -235 287 -574 168
-879 -38 -99 -126 -227 -209 -305 -331 -313 -864 -295 -1182 39 -252 264 -300
670 -119 988 125 217 362 382 597 414 89 13 272 4 348 -15z"/>
<path d="M3185 5231 c-71 -33 -96 -69 -106 -153 -10 -92 -10 -745 0 -856 9
-96 25 -124 91 -161 78 -43 105 -37 306 74 421 230 635 362 663 409 47 75 32
180 -32 228 -87 66 -639 391 -762 450 -70 33 -105 35 -160 9z m25 -75 c0 -2
-8 -10 -17 -17 -16 -13 -17 -12 -4 4 13 16 21 21 21 13z"/>
<path d="M1362 5188 c-7 -7 -12 -19 -12 -27 0 -28 -46 -115 -74 -141 -15 -14
-59 -41 -99 -60 -99 -48 -100 -66 -8 -107 79 -35 125 -87 162 -185 29 -79 45
-90 75 -55 13 16 24 36 24 46 0 39 58 108 131 156 81 53 119 84 119 97 0 5
-34 25 -76 44 -78 37 -116 76 -152 154 -38 82 -64 104 -90 78z m114 -248 l42
-45 -70 -64 c-69 -63 -69 -64 -84 -42 -9 12 -33 42 -55 67 -21 25 -39 48 -39
52 0 4 15 17 34 30 19 13 47 41 62 64 l28 40 20 -29 c12 -15 39 -48 62 -73z"/>
<path d="M2573 4645 c0 -22 2 -30 4 -17 2 12 2 30 0 40 -3 9 -5 -1 -4 -23z"/>
<path d="M4724 3885 c-21 -55 73 -123 171 -124 85 -1 196 69 179 112 -8 23
-36 21 -87 -4 -60 -31 -132 -29 -192 5 -55 30 -64 32 -71 11z"/>
<path d="M4433 3674 c-3 -8 6 -39 21 -67 34 -67 33 -117 -1 -185 -20 -40 -24
-58 -17 -70 18 -27 33 -25 68 10 59 59 71 180 26 269 -28 54 -83 79 -97 43z"/>
<path d="M4975 3580 c-3 -5 -13 -32 -21 -59 -21 -71 -55 -107 -125 -132 -73
-27 -91 -51 -55 -75 65 -42 213 54 252 165 18 50 17 68 -6 91 -22 22 -36 25
-45 10z"/>
<path d="M5395 3583 c-76 -16 -135 -57 -170 -117 -32 -55 -43 -127 -22 -145
29 -24 51 -9 64 43 17 67 71 122 140 142 28 8 54 21 57 29 6 17 -2 45 -14 45
-5 0 -14 2 -22 4 -7 2 -22 2 -33 -1z"/>
<path d="M2098 2291 c-79 -26 -136 -61 -190 -119 -57 -61 -84 -112 -109 -210
-37 -147 2 -282 116 -398 88 -90 169 -127 290 -132 139 -6 245 36 343 136 117
121 150 338 75 492 -33 68 -132 169 -199 203 -95 48 -227 59 -326 28z m246
-81 c54 -17 77 -32 124 -78 137 -134 159 -304 59 -465 -118 -192 -414 -211
-571 -36 -90 100 -116 256 -62 374 84 185 258 264 450 205z"/>
</g>
</svg>
